#!OML:ASF X:\für Bonn\!DataBase\2005_08_12_Daniel\c3d\Daniel.ASF
:FULLY-SPECIFIED
:DEGREES
97
root 4.51343 16.8384 -2.97288 -153.971 -85.6942 136.526
lowerback 26.6237 -1.58447 1.88748
upperback 11.4563 -3.17252 -6.45527
thorax -2.41451 -1.88553 -7.283
lowerneck 11.0643 10.0745 -9.35369
upperneck 22.6397 10.9257 3.21869
head 4.46225 4.16716 2.47654
rclavicle 4.17448e-014 7.4743e-014
rhumerus -56.2961 -28.0548 -49.772
rradius 12.9381
rwrist 70.5405
rhand -14.9433 19.0212
rfingers 7.12502
rthumb 11.2195 -10.6588
lclavicle 4.17448e-014 7.4743e-014
lhumerus -28.4551 -13.3995 82.7792
lradius 131.717
lwrist 13.3855
lhand -19.1782 -24.9954
lfingers 7.12502
lthumb 7.1331 4.86441
rfemur -4.82894 -0.263576 21.8461
rtibia 43.9196
rfoot -28.946 -14.5834
rtoes -2.634
lfemur -34.093 -5.54617 -16.8828
ltibia 97.7664
lfoot 10.8832 13.2895
ltoes -0.993582
98
root 4.51617 16.853 -2.97036 -151.131 -85.8054 134.186
lowerback 26.1055 -1.74349 1.61087
upperback 11.2777 -3.40433 -6.44645
thorax -2.39386 -1.99803 -7.04489
lowerneck 11.3348 10.1527 -9.40765
upperneck 21.6642 11.0681 2.98523
head 4.12328 4.27689 2.3683
rclavicle -1.27222e-014 -1.11319e-014
rhumerus -55.2243 -26.0541 -52.2777
rradius 13.4902
rwrist 67.3759
rhand -15.0498 19.0914
rfingers 7.12502
rthumb 11.1168 -10.5941
lclavicle -1.27222e-014 -1.11319e-014
lhumerus -28.1486 -13.4916 82.5184
lradius 131.697
lwrist 13.4136
lhand -19.205 -24.7274
lfingers 7.12502
lthumb 7.1073 5.13329
rfemur -5.31371 0.0880045 21.8834
rtibia 43.8629
rfoot -29.108 -14.9653
rtoes -2.38002
lfemur -32.4604 -6.56458 -16.9343
ltibia 95.7748
lfoot 10.4332 13.2131
ltoes -1.07235
99
root 4.51816 16.8677 -2.96756 -147.89 -85.9117 131.436
lowerback 25.6183 -1.91482 1.34343
upperback 11.0731 -3.64849 -6.44681
thorax -2.41422 -2.11629 -6.8208
lowerneck 11.6 10.2234 -9.44148
upperneck 20.7274 11.1961 2.74822
head 3.80153 4.37953 2.25782
rclavicle 2.26615e-014 3.33958e-014
rhumerus -54.346 -24.0557 -54.648
rradius 14.0709
rwrist 64.1947
rhand -15.2785 19.2411
rfingers 7.12502
rthumb 10.8961 -10.4562
lclavicle 2.26615e-014 3.33958e-014
lhumerus -27.9104 -13.5958 82.2867
lradius 131.69
lwrist 13.4182
lhand -19.25 -24.4922
lfingers 7.12502
lthumb 7.06386 5.36988
rfemur -5.79259 0.38959 21.8857
rtibia 43.8116
rfoot -29.2693 -15.3343
rtoes -2.07256
lfemur -30.9076 -7.54253 -17.0039
ltibia 93.8048
lfoot 9.98683 12.9817
ltoes -1.47919
100
root 4.52004 16.8848 -2.96468 -144.528 -86.0142 128.563
lowerback 25.1436 -2.09698 1.06202
upperback 10.8536 -3.90609 -6.42152
thorax -2.4514 -2.24143 -6.55835
lowerneck 12.1169 10.3285 -9.55053
upperneck 19.2777 11.3394 2.40787
head 3.68396 4.48622 2.23734
rclavicle -2.62396e-014 -2.54444e-014
rhumerus -53.6716 -22.251 -56.674
rradius 14.6579
rwrist 61.3632
rhand -15.4872 19.4039
rfingers 7.12502
rthumb 10.6949 -10.3039
lclavicle -2.62396e-014 -2.54444e-014
lhumerus -27.7241 -13.6411 82.1031
lradius 131.7
lwrist 13.4257
lhand -19.2883 -24.3946
lfingers 7.12502
lthumb 7.02688 5.4688
rfemur -6.26678 0.69337 21.8895
rtibia 43.7671
rfoot -29.4152 -15.6947
rtoes -1.7828
lfemur -29.4304 -8.48248 -17.0632
ltibia 91.8734
lfoot 9.48353 12.6862
ltoes -2.24895
101
root 4.52132 16.9 -2.96104 -141.512 -86.1034 126.028
lowerback 24.6823 -2.27663 0.818786
upperback 10.6406 -4.15272 -6.39916
thorax -2.48309 -2.35995 -6.32769
lowerneck 12.3861 10.3777 -9.53593
upperneck 18.2872 11.4439 2.09592
head 3.29121 4.58917 2.0744
rclavicle -3.53837e-014 -3.33958e-014
rhumerus -53.1112 -20.5971 -58.5808
rradius 15.2536
rwrist 58.6652
rhand -15.592 19.5262
rfingers 7.12502
rthumb 10.5938 -10.1868
lclavicle -3.53837e-014 -3.33958e-014
lhumerus -27.504 -13.6993 81.9127
lradius 131.692
lwrist 13.4402
lhand -19.3623 -24.3055
lfingers 7.12502
lthumb 6.95546 5.56026
rfemur -6.73357 1.00483 21.9084
rtibia 43.727
rfoot -29.5825 -16.0382
rtoes -1.5523
lfemur -27.9972 -9.33788 -17.0985
ltibia 89.9508
lfoot 8.92124 12.3837
ltoes -3.44016
102
root 4.52321 16.9125 -2.95691 -137.895 -86.1565 122.858
lowerback 24.2488 -2.46438 0.53647
upperback 10.4415 -4.42119 -6.38709
thorax -2.50889 -2.49076 -6.08238
lowerneck 12.5583 10.4385 -9.55315
upperneck 17.3668 11.5642 1.81755
head 2.94313 4.69623 1.9371
rclavicle 1.27222e-014 -3.18055e-015
rhumerus -52.5623 -19.032 -60.4157
rradius 15.8064
rwrist 55.9028
rhand -15.5631 19.5719
rfingers 7.12502
rthumb 10.6216 -10.1397
lclavicle 1.27222e-014 -3.18055e-015
lhumerus -27.2666 -13.6894 81.731
lradius 131.688
lwrist 13.452
lhand -19.3949 -24.2382
lfingers 7.12502
lthumb 6.92396 5.62859
rfemur -7.17895 1.26623 21.8586
rtibia 43.6888
rfoot -29.7017 -16.3508
rtoes -1.33883
lfemur -26.6041 -10.1306 -17.1832
ltibia 88.0391
lfoot 8.32846 12.1133
ltoes -4.80465
103
root 4.52366 16.9261 -2.9525 -134.828 -86.195 120.21
lowerback 23.8402 -2.64208 0.282205
upperback 10.2448 -4.67008 -6.35892
thorax -2.53752 -2.61125 -5.84319
lowerneck 12.7642 10.4944 -9.57351
upperneck 16.4047 11.6686 1.54109
head 2.58234 4.79832 1.79998
rclavicle 3.18055e-014 5.725e-014
rhumerus -52.1261 -17.8406 -61.8834
rradius 16.3061
rwrist 53.4271
rhand -15.3118 19.5942
rfingers 7.12502
rthumb 10.8641 -10.1047
lclavicle 3.18055e-014 5.725e-014
lhumerus -27.057 -13.6737 81.6266
lradius 131.679
lwrist 13.4478
lhand -19.4055 -24.2454
lfingers 7.12502
lthumb 6.91369 5.62173
rfemur -7.58275 1.5111 21.8187
rtibia 43.6429
rfoot -29.8078 -16.6247
rtoes -1.09206
lfemur -25.2142 -10.8269 -17.2516
ltibia 86.1176
lfoot 7.63942 11.9154
ltoes -6.06303
104
root 4.52409 16.9412 -2.94762 -132.426 -86.2252 118.212
lowerback 23.451 -2.81449 0.0624839
upperback 10.0508 -4.90564 -6.33044
thorax -2.56888 -2.72434 -5.62938
lowerneck 12.9359 10.547 -9.56774
upperneck 15.4661 11.7711 1.26647
head 2.24325 4.90077 1.66396
rclavicle 1.59028e-015 -2.06736e-014
rhumerus -51.7719 -16.9047 -63.1056
rradius 16.7455
rwrist 51.3162
rhand -15.1224 19.6876
rfingers 7.12502
rthumb 11.0467 -10.0017
lclavicle 1.59028e-015 -2.06736e-014
lhumerus -26.8229 -13.6406 81.5223
lradius 131.651
lwrist 13.4503
lhand -19.4093 -24.2664
lfingers 7.12502
lthumb 6.91004 5.60078
rfemur -7.96736 1.75742 21.7969
rtibia 43.5926
rfoot -29.9061 -16.8677
rtoes -0.753338
lfemur -23.8449 -11.3895 -17.2771
ltibia 84.1944
lfoot 6.86189 11.7563
ltoes -7.06426
